<svg xmlns="http://www.w3.org/2000/svg" height="512" viewBox="0 0 464 464" width="512"><path d="M200 276.688v-14.399c-12.016 6.16-25.594 9.711-40 9.711s-27.984-3.55-40-9.71v14.397l40 40zm0 0" data-original="#000000" class="active-path" data-old_color="#000000" fill="#C6190B"/><path d="M238.063 298.45l-16.649 83.245L160 337.832l-61.426 43.871-16.644-83.246-54.586 18.191A39.956 39.956 0 0 0 0 354.594V416h256V304.426zm0 0" data-original="#000000" class="active-path" data-old_color="#000000" fill="#C6190B"/><path d="M97.23 293.352l12.196 60.945 38.238-27.32-37.824-37.825zm0 0M222.77 293.352l-12.61-4.2-37.824 37.825 38.238 27.32zm0 0M248 145.473V184c0 2.238-.168 4.434-.336 6.633C257.13 187.414 264 178.535 264 168c0-10.414-6.71-19.215-16-22.527zm0 0M160 0C102.656 0 56 46.656 56 104v32.207c5.063-3.832 11.008-6.48 17.535-7.55C78.56 109.886 95.672 96 116 96c9.465 0 18.832 3.129 26.406 8.809L160 118l17.602-13.191C185.168 99.129 194.535 96 204 96c20.328 0 37.441 13.887 42.465 32.656 6.527 1.07 12.472 3.719 17.535 7.551V104C264 46.656 217.344 0 160 0zm0 0" data-original="#000000" class="active-path" data-old_color="#000000" fill="#C6190B"/><path d="M232 140c0-15.441-12.559-28-28-28a28.184 28.184 0 0 0-16.8 5.602L160 138l-27.191-20.398C127.984 113.992 122.023 112 116 112c-15.441 0-28 12.559-28 28v44c0 39.703 32.297 72 72 72s72-32.297 72-72zm-112 20c-4.414 0-8-3.586-8-8s3.586-8 8-8 8 3.586 8 8-3.586 8-8 8zm40 72c-17.648 0-32-14.352-32-32h16c0 8.824 7.176 16 16 16s16-7.176 16-16h16c0 17.648-14.352 32-32 32zm40-72c-4.414 0-8-3.586-8-8s3.586-8 8-8 8 3.586 8 8-3.586 8-8 8zm0 0M432 272h32l-32-32zm0 0" data-original="#000000" class="active-path" data-old_color="#000000" fill="#C6190B"/><path d="M416 240H272v224h192V288h-48zm-96 16h80v16h-80zm-32 0h16v16h-16zm0 32h112v16H288zm0 32h128v16H288zm64 128h-64v-16h64zm0-32h-64v-16h64zm0-32h-64v-16h64zm80-64h16v16h-16zm16 48v80h-80v-80zm0 0" data-original="#000000" class="active-path" data-old_color="#000000" fill="#C6190B"/><path d="M384 384h48v48h-48zm0 0M56 168c0 10.535 6.871 19.414 16.336 22.633-.168-2.2-.336-4.395-.336-6.633v-38.527c-9.29 3.312-16 12.113-16 22.527zm0 0M392 192c39.703 0 72-32.297 72-72 0-14.328-4.258-27.656-11.496-38.887l-67.656 73.809-45.84-36.676 10-12.492 34.16 27.324 59.137-64.512C429.305 55.863 411.559 48 392 48c-39.703 0-72 32.297-72 72s32.297 72 72 72zm0 0" data-original="#000000" class="active-path" data-old_color="#000000" fill="#C6190B"/></svg>