<svg xmlns="http://www.w3.org/2000/svg" height="512" viewBox="0 0 464 464" width="512"><path d="M336 440c0 13.23 10.77 24 24 24s24-10.77 24-24V336h-48zm24-8c4.414 0 8 3.586 8 8s-3.586 8-8 8-8-3.586-8-8 3.586-8 8-8zm0 0M82.793 358.105l-32.45-32.449 11.313-11.312 15.551 15.55L94.672 288H32v80h96v-80h-16zm0 0M82.793 206.105l-32.45-32.449 11.313-11.312 15.551 15.55L94.672 136H32v80h96v-80h-16zm0 0M360 288c-2.703 0-5.344-.23-8-.406V320h16v-32.406c-2.656.176-5.297.406-8 .406zm0 0" data-original="#000000" class="active-path" data-old_color="#000000" fill="#C6190B"/><path d="M336 285.586c-54.703-11.152-96-59.633-96-117.586 0-63.473 49.559-115.45 112-119.594V0H0v400h320v-80h16zM16 16h208v16H16zm144 184v-16h64v16zm64 16v16h-64v-16zm-64-48v-16h64v16zm0-32v-16h64v16zm48-72V48h16v16zM16 48h176v16H16zm128 336H16V272h85.336l11.281-27.078 14.766 6.156L118.664 272H144zm0-152H16V120h85.336l11.281-27.078 14.766 6.156L118.664 120H144zm112 152h-96v-16h96zm0-32h-96v-16h96zm0-32h-96v-16h96zm0-32h-96v-16h96zm0 0" data-original="#000000" class="active-path" data-old_color="#000000" fill="#C6190B"/><path d="M360 64c-57.344 0-104 46.656-104 104s46.656 104 104 104 104-46.656 104-104S417.344 64 360 64zm0 192c-48.52 0-88-39.48-88-88s39.48-88 88-88 88 39.48 88 88-39.48 88-88 88zm0 0" data-original="#000000" class="active-path" data-old_color="#000000" fill="#C6190B"/><path d="M360 96c-39.695 0-72 32.297-72 72s32.305 72 72 72 72-32.297 72-72-32.305-72-72-72zm-4.895 123.68l-31.539-21.024 8.875-13.312 16.461 10.976 35.946-71.894 14.312 7.16zm0 0" data-original="#000000" class="active-path" data-old_color="#000000" fill="#C6190B"/></svg>