<svg xmlns="http://www.w3.org/2000/svg" height="512" viewBox="0 0 464 464" width="512"><path d="M84.008 178.602L88 180.91v25.336l-18.191 4.547L112 235.406l-.305 14.793-.648 2.266L136 246.91v-5.926c0-10.754 4.344-20.601 11.457-27.879l-27.45-6.859-.03-25.316 4-2.313C136.328 171.465 144 158.2 144 144v-13.984c0-22.512-17.39-41.352-38.77-41.993-10.832-.421-21.253 3.672-29.085 11.266C68.313 106.887 64 117.09 64 128v16c0 14.2 7.664 27.465 20.008 34.602zm0 0M143.625 89.266C162.425 59 195.84 40 232 40c35.902 0 69.223 18.824 88.078 48.793.32-.32.602-.672.93-.992 4.984-4.84 10.71-8.57 16.887-11.227l9.074-21.246-25.528-25.535-22.496 14.64-4.304-2.64c-10.786-6.61-22.442-11.45-34.641-14.367l-4.93-1.188L249.512 0H214.48l-5.55 26.238-4.922 1.176c-12.2 2.922-23.856 7.762-34.64 14.371l-4.305 2.64-22.497-14.64-25.558 25.559 8.976 21.398c6.625 2.985 12.61 7.258 17.641 12.524zm0 0M0 184v146.23l34.336 11.45 29.031-116.121zm0 0" data-original="#000000" class="active-path" data-old_color="#000000" fill="#C6190B"/><path d="M328 189.902c-14.91-10.414-24-27.59-24-45.902v-16c0-8.816 2.07-17.273 5.879-24.91C294.742 74.375 264.633 56 232 56c-32.945 0-63.184 18.625-78.207 47.734 3.941 7.93 6.207 16.868 6.207 26.282V144c0 18.313-9.098 35.504-24.008 45.91v3.832L168 201.754l32-8.012v-3.84c-14.91-10.414-24-27.59-24-45.902v-16c0-15.281 6.04-29.55 17.008-40.191 10.96-10.641 25.398-16.223 40.71-15.786C263.649 72.93 288 98.938 288 130.016V144c0 18.313-9.098 35.504-24.008 45.91v3.832L296 201.754l32-8.012zm0 0M96 244.594l-18.246-10.64-28.203 112.8L65.297 352h.672L96 246.879zm0 0" data-original="#000000" class="active-path" data-old_color="#000000" fill="#C6190B"/><path d="M170.176 217.695A23.983 23.983 0 0 0 152 240.985v2.367l4.586-1.016c16.894-3.742 34.758-2.953 51.262 2.336l36.214 11.574c4.008.152 8 .594 11.868 1.7L305.12 272h4.902l1.977-1.04v-29.976c0-11.03-7.48-20.609-18.176-23.289l-45.816-11.449-.031-25.316 4-2.313C264.328 171.465 272 158.2 272 144v-13.984c0-22.512-17.39-41.352-38.77-41.993-10.796-.421-21.253 3.672-29.085 11.266C196.312 106.887 192 117.09 192 128v16c0 14.2 7.664 27.465 20.008 34.602L216 180.91v25.336zm0 0M320 128v16c0 14.2 7.664 27.465 20.008 34.602L344 180.91v25.336l-27.457 6.86c7.105 7.277 11.457 17.117 11.457 27.878v21.551l87.977-46.305-39.97-9.984-.03-25.316 4-2.313C392.328 171.465 400 158.2 400 144v-13.984c0-22.512-17.39-41.352-38.77-41.993-10.855-.421-21.246 3.672-29.085 11.266C324.312 106.887 320 117.09 320 128zm0 0M249.55 316.168c-5.167-4.648-13.198-5.441-19.183-1.848l-29.793 17.864A26.712 26.712 0 0 1 186.801 336C172.023 336 160 323.977 160 309.2v-1.583c0-10.21 5.672-19.394 14.816-23.969l39.954-19.976-11.786-3.77c-13.824-4.422-28.761-5.109-42.922-1.941l-54.007 12.008-21.543 75.398 24.578 14.746c.703-.945 1.398-1.898 2.238-2.738l14.063-14.062c4.632-4.649 11.066-7.313 17.64-7.313 13.465 0 24.41 10.734 24.88 24.09 13.05.46 23.538 10.95 24 24 13.05.46 23.538 10.95 24 24 9.464.336 17.546 5.941 21.48 13.98l17.855 14.883a13.176 13.176 0 0 0 8.41 3.047c4.602 0 8.344-3.742 8.344-8.344a8.325 8.325 0 0 0-3-6.41l-42.129-35.101 10.25-12.297 43.453 36.207A8.309 8.309 0 0 0 285.91 416h1.746c4.602 0 8.344-3.742 8.344-8.344a8.325 8.325 0 0 0-3-6.41l-42.129-35.101 10.25-12.297L304.504 390a8.599 8.599 0 0 0 5.504 2h1.383c4.754 0 8.609-3.855 8.609-8.602a8.63 8.63 0 0 0-2.848-6.398zm0 0" data-original="#000000" class="active-path" data-old_color="#000000" fill="#C6190B"/><path d="M313.977 288l-12.168-.305-50.274-14.36c-8.23-2.366-17.297-1.503-24.933 2.313l-44.625 22.313c-3.688 1.848-5.977 5.543-5.977 9.656v1.582c0 5.953 4.84 10.801 10.8 10.801 1.954 0 3.864-.527 5.536-1.527l29.8-17.871A32.134 32.134 0 0 1 238.712 296a32.147 32.147 0 0 1 21.555 8.273l67.582 60.832c.48.43.937.872 1.375 1.336L464 299.055v-90.016zm0 0M237.727 443.191c-1.23 2.746-2.895 5.29-5.04 7.434l-6.007 6.008 5.984 5.277a8.305 8.305 0 0 0 5.512 2.09h1.48c4.602 0 8.344-3.742 8.344-8.344a8.325 8.325 0 0 0-3-6.41zm0 0M215.031 424a9.03 9.03 0 0 0-6.344 2.625l-14.062 14.063A9.03 9.03 0 0 0 192 447.03c0 4.946 4.023 8.969 8.969 8.969a9.03 9.03 0 0 0 6.344-2.625l14.062-14.063A9.03 9.03 0 0 0 224 432.97c0-4.946-4.023-8.969-8.969-8.969zm0 0M176 384.969c0-4.946-4.023-8.969-8.969-8.969a9.03 9.03 0 0 0-6.344 2.625l-14.062 14.063A9.03 9.03 0 0 0 144 399.03c0 4.946 4.023 8.969 8.969 8.969a9.03 9.03 0 0 0 6.344-2.625l14.062-14.063A9.03 9.03 0 0 0 176 384.97zm0 0M200 408.969c0-4.946-4.023-8.969-8.969-8.969a9.03 9.03 0 0 0-6.344 2.625l-14.062 14.063A9.03 9.03 0 0 0 168 423.03c0 4.946 4.023 8.969 8.969 8.969a9.03 9.03 0 0 0 6.344-2.625l14.062-14.063A9.03 9.03 0 0 0 200 408.97zm0 0M152 360.969c0-4.946-4.023-8.969-8.969-8.969a9.03 9.03 0 0 0-6.344 2.625l-14.062 14.063A9.03 9.03 0 0 0 120 375.03c0 4.946 4.023 8.969 8.969 8.969a9.03 9.03 0 0 0 6.344-2.625l14.062-14.063A9.03 9.03 0 0 0 152 360.97zm0 0" data-original="#000000" class="active-path" data-old_color="#000000" fill="#C6190B"/></svg>